<svg xmlns="http://www.w3.org/2000/svg" viewBox="0 0 24 24">
  <path d="M0.5 12.001a11.5 11.5 0 1 0 23 0 11.5 11.5 0 1 0 -23 0" fill="#9feaff" fill-opacity="0.6" stroke-width="1"></path>
  <path d="M12 23.5a11.5 11.5 0 0 1 0 -23Z" fill="#dff9ff" fill-opacity="0.4" stroke-width="1"></path>
  <path d="M0.5 12.001a11.5 11.5 0 1 0 23 0 11.5 11.5 0 1 0 -23 0" fill="none" stroke="rgba(255,255,255,0.85)" stroke-linecap="round" stroke-linejoin="round" stroke-width="1"></path>
  <path d="M2.5 13.5h2.374c2.206 0 2.015 -1.867 3.633 -9.632a0.5 0.5 0 0 1 0.979 0L12.548 18.8a0.5 0.5 0 0 0 0.976 0.017l2.109 -8.787a0.5 0.5 0 0 1 0.951 -0.069c0.743 1.858 1.04 3.541 2.77 3.541H21.5" fill="none" stroke="rgba(255,255,255,0.85)" stroke-linecap="round" stroke-linejoin="round" stroke-width="1"></path>
</svg>
